<!DOCTYPE svg PUBLIC "-//W3C//DTD SVG 20010904//EN" "http://www.w3.org/TR/2001/REC-SVG-20010904/DTD/svg10.dtd">
<svg version="1.0" xmlns="http://www.w3.org/2000/svg" width="250px" height="200px" viewBox="0 0 2500 2000" preserveAspectRatio="xMidYMid meet">
<g id="layer101" fill="#000000" stroke="none">
 <path d="M881 1793 c-37 -8 -70 -33 -87 -64 -17 -35 -19 -181 -2 -208 9 -15 9 -25 0 -46 -7 -14 -12 -39 -12 -56 0 -16 5 -38 12 -48 9 -15 9 -25 0 -46 -15 -33 -15 -80 0 -104 9 -15 9 -25 0 -46 -15 -33 -15 -67 0 -100 9 -21 9 -31 0 -46 -15 -24 -15 -71 0 -104 9 -21 9 -31 0 -46 -7 -11 -12 -58 -12 -118 0 -114 7 -128 90 -181 l50 -32 0 -78 c0 -86 13 -136 40 -150 20 -11 199 -14 225 -4 30 12 45 60 45 147 l0 85 50 32 c82 53 90 68 90 175 l0 92 63 13 c121 24 226 91 298 193 186 263 61 621 -250 718 -57 17 -100 21 -321 24 -140 2 -266 1 -279 -2z m414 -78 c22 -21 25 -33 25 -92 -1 -44 -6 -75 -15 -87 -20 -26 -19 -51 2 -87 16 -27 16 -31 0 -58 -21 -36 -22 -60 -1 -90 15 -21 15 -26 -1 -62 -17 -37 -17 -41 -1 -77 17 -36 17 -40 0 -76 -17 -35 -17 -38 1 -72 18 -33 18 -37 2 -64 -21 -35 -22 -60 -2 -86 10 -13 14 -45 15 -100 0 -90 -4 -97 -102 -163 -39 -26 -48 -37 -48 -61 l0 -30 -95 0 -95 0 0 30 c0 25 -9 36 -59 70 -33 22 -67 50 -75 62 -21 30 -22 165 -1 192 19 26 19 51 -2 86 -15 27 -15 30 0 54 21 32 21 60 1 96 -16 26 -16 29 0 51 21 30 20 63 -1 95 -15 24 -15 27 0 54 21 35 21 53 1 92 -15 29 -15 34 0 59 20 34 20 59 1 85 -9 12 -14 43 -15 87 0 59 3 71 25 92 24 25 25 25 220 25 195 0 196 0 220 -25z m413 -439 c-7 -78 -52 -169 -111 -222 -71 -65 -227 -120 -227 -81 0 10 11 19 28 23 99 21 178 71 223 142 32 51 59 129 59 174 0 19 5 28 16 28 14 0 16 -9 12 -64z m-540 -863 l-3 -48 -90 0 -90 0 -3 48 -3 47 96 0 96 0 -3 -47z"/>
 <path d="M900 1495 l0 -25 175 0 175 0 0 25 0 25 -175 0 -175 0 0 -25z"/>
 <path d="M907 1374 c-4 -4 -7 -18 -7 -31 l0 -23 176 0 175 0 -3 28 -3 27 -166 3 c-91 1 -168 -1 -172 -4z"/>
 <path d="M900 1200 l0 -30 175 0 175 0 0 30 0 30 -175 0 -175 0 0 -30z"/>
 <path d="M900 1050 l0 -30 175 0 175 0 0 30 0 30 -175 0 -175 0 0 -30z"/>
 <path d="M900 905 l0 -25 175 0 175 0 0 25 0 25 -175 0 -175 0 0 -25z"/>
 <path d="M880 761 c0 -49 4 -72 15 -81 13 -11 18 -10 30 6 8 10 12 25 10 32 -3 8 -5 36 -5 63 0 46 -2 49 -25 49 -24 0 -25 -2 -25 -69z"/>
 <path d="M961 668 c-12 -19 -11 -23 5 -35 17 -12 21 -11 37 8 17 21 17 22 0 35 -24 18 -26 17 -42 -8z"/>
 <path d="M1909 1761 c-34 -35 -34 -20 -11 -317 l17 -220 -22 -40 c-37 -64 -46 -127 -36 -249 7 -101 10 -110 28 -110 19 0 20 5 16 126 -3 133 5 180 41 232 20 28 20 32 4 235 -22 278 -21 308 4 322 28 15 59 3 66 -25 3 -13 -3 -130 -14 -260 l-19 -238 31 -60 c31 -60 31 -61 28 -199 -2 -131 -2 -138 17 -138 17 0 20 10 26 65 4 36 6 105 3 153 -3 71 -9 96 -32 138 l-27 51 19 239 c17 202 18 244 7 271 -25 61 -97 72 -146 24z"/>
 <path d="M2155 1765 l-25 -24 0 -450 c0 -395 2 -451 16 -465 40 -40 58 -16 112 154 70 218 76 285 32 325 -19 17 -20 31 -20 230 0 199 -1 213 -20 233 -27 29 -65 28 -95 -3z m65 -245 l0 -220 24 -16 c40 -25 40 -59 2 -189 -69 -237 -65 -251 -65 222 -1 421 1 443 32 426 4 -2 7 -103 7 -223z"/>
 <path d="M345 1735 c-28 -27 -29 -33 -16 -68 7 -19 3 -37 -20 -82 -33 -65 -37 -117 -14 -172 8 -19 15 -42 15 -49 0 -20 50 -94 64 -94 34 -1 34 -16 5 -100 -17 -47 -37 -92 -45 -101 -8 -8 -14 -26 -14 -38 0 -31 -52 -77 -95 -85 -33 -7 -36 -10 -33 -39 3 -30 5 -32 38 -29 44 3 112 43 135 79 10 15 26 36 36 46 11 10 19 30 19 44 0 15 15 68 33 120 l32 93 62 0 c34 0 72 5 85 10 25 12 68 71 68 94 0 7 7 30 15 49 23 55 19 107 -14 172 -23 45 -27 63 -20 82 13 35 12 41 -16 68 -23 24 -29 25 -160 25 -131 0 -137 -1 -160 -25z m295 -26 c0 -6 -5 -19 -10 -30 -10 -17 -22 -19 -124 -19 -111 0 -113 0 -124 25 -7 14 -12 28 -12 30 0 3 61 5 135 5 89 0 135 -4 135 -11z m3 -355 c3 -4 2 -15 -4 -25 -9 -17 -23 -19 -132 -19 -109 0 -123 2 -134 19 -7 10 -9 22 -6 25 8 8 268 8 276 0z"/>
 <path d="M1927 1064 c-4 -4 -7 -61 -7 -126 0 -112 1 -118 20 -118 20 0 20 5 18 122 -3 113 -10 142 -31 122z"/>
 <path d="M1985 1058 c-3 -8 -4 -63 -3 -124 3 -101 4 -109 23 -109 19 0 20 7 20 120 0 106 -2 120 -18 123 -9 2 -19 -3 -22 -10z"/>
 </g>

</svg>