<?xml version="1.0" encoding="UTF-8" standalone="no"?>
<svg
   xmlns:x="adobe:ns:meta/"
   xmlns:dc="http://purl.org/dc/elements/1.1/"
   xmlns:cc="http://creativecommons.org/ns#"
   xmlns:rdf="http://www.w3.org/1999/02/22-rdf-syntax-ns#"
   xmlns:svg="http://www.w3.org/2000/svg"
   xmlns="http://www.w3.org/2000/svg"
   xmlns:sodipodi="http://sodipodi.sourceforge.net/DTD/sodipodi-0.dtd"
   xmlns:inkscape="http://www.inkscape.org/namespaces/inkscape"
   viewBox="0 0 472.00119 479.99933"
   x="0px"
   y="0px"
   version="1.1"
   id="svg967"
   sodipodi:docname="noun_fever_3381784.svg"
   width="472.00119"
   height="479.99933"
   inkscape:version="0.92.3 (2405546, 2018-03-11)">
  <defs
     id="defs971" />
  <sodipodi:namedview
     pagecolor="#ffffff"
     bordercolor="#666666"
     borderopacity="1"
     objecttolerance="10"
     gridtolerance="10"
     guidetolerance="10"
     inkscape:pageopacity="0"
     inkscape:pageshadow="2"
     inkscape:window-width="1920"
     inkscape:window-height="1025"
     id="namedview969"
     showgrid="false"
     inkscape:zoom="1.31875"
     inkscape:cx="240"
     inkscape:cy="236.66281"
     inkscape:window-x="0"
     inkscape:window-y="27"
     inkscape:window-maximized="1"
     inkscape:current-layer="svg967" />
  <desc
     id="desc955">Fever icon for website, application, printing, document, poster design, etc.</desc>
  <metadata
     id="metadata957">
<?xpacket begin="&#65279;" id="W5M0MpCehiHzreSzNTczkc9d"?>    <x:xmpmeta
       x:xmptk="Adobe XMP Core 5.6-c145 79.162955, 2018/05/10-01:07:16        " />
<?xpacket end="w"?>    <rdf:RDF>
      <cc:Work
         rdf:about="">
        <dc:format>image/svg+xml</dc:format>
        <dc:type
           rdf:resource="http://purl.org/dc/dcmitype/StillImage" />
      </cc:Work>
    </rdf:RDF>
  </metadata>
  <g
     id="g961"
     transform="translate(-16,-15.999969)">
    <path
       d="m 80,320 v -8 A 56.009,56.009 0 0 1 33.339,225.025 l 13.322,8.86 A 40.008,40.008 0 0 0 80,296 v -24 h 16 v 48 a 159.989,159.989 0 0 0 281.9,103.629 c 2.658,-3.118 5.22,-6.373 7.625,-9.681 l 12.942,9.407 c -2.645,3.64 -5.465,7.22 -8.381,10.644 A 176.435,176.435 0 0 1 359.336,462.474 176.005,176.005 0 0 1 80,320 Z m 152.08,-49.131 -8,56 15.84,2.262 8,-56 z M 208,352 h 96 a 24,24 0 0 1 0,48 h -96 a 24,24 0 0 1 0,-48 z m 96,16 h -96 a 8,8 0 0 0 0,16 h 96 a 8,8 0 0 0 0,-16 z M 16,176 V 96 A 48.055,48.055 0 0 1 61.768,48.057 L 56.239,25.94 A 8.068,8.068 0 0 1 64,16 H 304 A 127.683,127.683 0 0 1 379.167,40.405 40,40 0 0 1 456,56 v 149.4 a 56,56 0 0 1 0,101.194 v 6.226 A 55.994,55.994 0 0 1 416,408 h -0.266 A 55.994,55.994 0 0 1 376,312.817 V 264 h -72 v -16 h 72 v -32.9 a 85.55,85.55 0 0 1 -75.623,-19.345 l 10.586,-12 A 69.593,69.593 0 0 0 376,198.582 V 178.806 L 348.155,144 H 280 v -16 h 72 a 8,8 0 0 1 6.247,3 L 376,153.194 V 58.229 A 111.691,111.691 0 0 0 304,32 H 74.246 l 4,16 H 244 a 27.987,27.987 0 0 1 19.577,48 27.956,27.956 0 0 1 0,40 27.956,27.956 0 0 1 0,40 A 27.987,27.987 0 0 1 244,224 h -98.92 l 15.4,18.482 A 30.939,30.939 0 0 1 164.15,248 H 208 v 16 h -40.671 c -0.011,0.1 -0.015,0.206 -0.027,0.309 -1.594,13.64 -13.882,23.634 -27.409,23.634 a 28.306,28.306 0 0 1 -21.14,-9.375 L 68.492,224 H 64 A 48.054,48.054 0 0 1 16,176 Z m 440,111.978 a 40.2,40.2 0 0 0 4.284,-3.695 A 40,40 0 0 0 456,224 Z M 392,128 h 16 v -16 h -16 z m 16,224 a 8,8 0 1 0 8,-8 8.009,8.009 0 0 0 -8,8 z M 392,160 h 16 v -16 h -16 z m 0,32 h 16 v -16 h -16 z m 0,32 h 16 v -16 h -16 z m 0,32 h 16 v -16 h -16 z m 0,32 h 16 v -16 h -16 z m -15.969,65.59 A 40.379,40.379 0 0 0 415.811,392 H 416 A 39.993,39.993 0 0 0 442.664,322.193 8,8 0 0 1 440,316.232 V 56 a 24,24 0 0 0 -48,0 v 40 h 16 V 64 h 16 v 265.376 a 24,24 0 1 1 -16,0 V 304 h -16 v 12.232 a 8,8 0 0 1 -2.664,5.961 39.94,39.94 0 0 0 -13.305,31.397 z M 32,176 a 32.036,32.036 0 0 0 32,32 c 4.5,0 10.471,-1.126 13.885,2.581 l 52.679,57.193 0.095,0.105 c 6.129,6.9 19.585,4.591 20.751,-5.432 a 13.093,13.093 0 0 0 -3.219,-9.721 l -26.337,-31.6 A 7.993,7.993 0 0 1 120.006,216 C 120,185.244 112.137,164.673 105.541,152.832 98.434,140.073 91.228,134.421 91.155,134.366 L 100.8,121.6 c 1.379,1.034 32.5,25.1 35.031,86.4 H 244 a 12,12 0 0 0 0,-24 h -84 v -16 h 84 a 12,12 0 0 0 0,-24 h -84 v -16 h 84 a 12,12 0 0 0 0,-24 H 160 V 88 h 84 a 12,12 0 0 0 0,-24 H 64 A 32.036,32.036 0 0 0 32,96 Z"
       id="path959"
       inkscape:connector-curvature="0" />
  </g>
</svg>
