<?xml version="1.0" encoding="UTF-8" standalone="no"?>
<svg
   xmlns:dc="http://purl.org/dc/elements/1.1/"
   xmlns:cc="http://creativecommons.org/ns#"
   xmlns:rdf="http://www.w3.org/1999/02/22-rdf-syntax-ns#"
   xmlns:svg="http://www.w3.org/2000/svg"
   xmlns="http://www.w3.org/2000/svg"
   xmlns:sodipodi="http://sodipodi.sourceforge.net/DTD/sodipodi-0.dtd"
   xmlns:inkscape="http://www.inkscape.org/namespaces/inkscape"
   version="1.1"
   x="0px"
   y="0px"
   viewBox="0 0 51.720001 88.730003"
   xml:space="preserve"
   id="svg383"
   sodipodi:docname="noun_Hand_2595880.svg"
   width="51.720001"
   height="88.730003"
   inkscape:version="0.92.3 (2405546, 2018-03-11)"><metadata
     id="metadata389"><rdf:RDF><cc:Work
         rdf:about=""><dc:format>image/svg+xml</dc:format><dc:type
           rdf:resource="http://purl.org/dc/dcmitype/StillImage" /></cc:Work></rdf:RDF></metadata><defs
     id="defs387" /><sodipodi:namedview
     pagecolor="#ffffff"
     bordercolor="#666666"
     borderopacity="1"
     objecttolerance="10"
     gridtolerance="10"
     guidetolerance="10"
     inkscape:pageopacity="0"
     inkscape:pageshadow="2"
     inkscape:window-width="1920"
     inkscape:window-height="1025"
     id="namedview385"
     showgrid="false"
     inkscape:zoom="6.752"
     inkscape:cx="25.85"
     inkscape:cy="31.86"
     inkscape:window-x="0"
     inkscape:window-y="27"
     inkscape:window-maximized="1"
     inkscape:current-layer="svg383" /><g
     id="g353"
     transform="translate(-24.15,-5.63)"><g
       id="g351"><g
         id="g349"><path
           d="m 34.94,41.66 c -1.1,0 -2,-0.9 -2,-2 V 17.99 c 0,-3.87 3.08,-7.02 6.86,-7.02 3.78,0 6.86,3.15 6.86,7.02 0,1.1 -0.9,2 -2,2 -1.1,0 -2,-0.9 -2,-2 0,-1.67 -1.28,-3.02 -2.86,-3.02 -1.58,0 -2.86,1.36 -2.86,3.02 v 21.67 c 0,1.11 -0.89,2 -2,2 z"
           id="path347"
           inkscape:connector-curvature="0" /></g></g></g><g
     id="g361"
     transform="translate(-24.15,-5.63)"><g
       id="g359"><g
         id="g357"><path
           d="m 54.4,46.56 c -1.1,0 -2,-0.9 -2,-2 v -31.9 c 0,-1.67 -1.28,-3.03 -2.86,-3.03 -1.58,0 -2.86,1.36 -2.86,3.03 v 31.9 c 0,1.1 -0.9,2 -2,2 -1.1,0 -2,-0.9 -2,-2 v -31.9 c 0,-3.87 3.08,-7.03 6.86,-7.03 3.78,0 6.86,3.15 6.86,7.03 v 31.9 c 0,1.1 -0.9,2 -2,2 z"
           id="path355"
           inkscape:connector-curvature="0" /></g></g></g><g
     id="g369"
     transform="translate(-24.15,-5.63)"><g
       id="g367"><g
         id="g365"><path
           d="m 64.12,30.53 c -1.1,0 -2,-0.9 -2,-2 V 18.07 c 0,-1.67 -1.29,-3.03 -2.86,-3.03 -1.57,0 -2.86,1.36 -2.86,3.03 0,1.1 -0.9,2 -2,2 -1.1,0 -2,-0.9 -2,-2 0,-3.88 3.08,-7.03 6.86,-7.03 3.78,0 6.86,3.15 6.86,7.03 v 10.46 c 0,1.11 -0.89,2 -2,2 z"
           id="path363"
           inkscape:connector-curvature="0" /></g></g></g><g
     id="g377"
     transform="translate(-24.15,-5.63)"><g
       id="g375"><g
         id="g373"><path
           d="m 51.26,94.36 c -2.77,0 -5.79,-0.27 -6.28,-0.31 -0.07,-0.01 -0.13,-0.02 -0.2,-0.03 C 32.83,91.7 24.15,81.19 24.15,69.03 V 39.05 c 0,-1.72 0.91,-3.25 2.43,-4.09 1.68,-0.93 3.84,-0.86 5.49,0.18 l 2,1.38 c 0.06,0.04 0.12,0.09 0.17,0.13 2.61,2.26 4.11,5.29 4.11,8.31 v 11.73 c 3.29,1.68 12.17,7.04 12.17,16.15 0,1.1 -0.9,2 -2,2 -1.1,0 -2,-0.9 -2,-2 0,-8.33 -10.81,-12.99 -10.92,-13.03 -0.29,-0.12 -0.54,-0.31 -0.75,-0.55 -0.31,-0.36 -0.5,-0.85 -0.5,-1.33 V 44.96 c 0,-1.83 -0.96,-3.72 -2.65,-5.22 l -1.83,-1.27 c -0.42,-0.26 -1.01,-0.2 -1.35,-0.02 -0.32,0.18 -0.36,0.39 -0.36,0.59 v 29.98 c 0,10.21 7.27,19.05 17.3,21.04 2.58,0.23 7.1,0.46 8.62,0.11 10.47,-2.45 17.79,-11.14 17.79,-21.15 v -41.3 c 0,-1.67 -1.28,-3.03 -2.86,-3.03 -1.58,0 -2.86,1.36 -2.86,3.03 v 20.09 c 0,1.1 -0.9,2 -2,2 -1.1,0 -2,-0.9 -2,-2 V 27.73 c 0,-3.88 3.08,-7.03 6.86,-7.03 3.78,0 6.86,3.15 6.86,7.03 v 41.3 c 0,11.88 -8.59,22.17 -20.88,25.05 -0.93,0.21 -2.3,0.28 -3.73,0.28 z"
           id="path371"
           inkscape:connector-curvature="0" /></g></g></g></svg>