<?xml version="1.0" encoding="UTF-8" standalone="no"?>
<svg
   xmlns:dc="http://purl.org/dc/elements/1.1/"
   xmlns:cc="http://creativecommons.org/ns#"
   xmlns:rdf="http://www.w3.org/1999/02/22-rdf-syntax-ns#"
   xmlns:svg="http://www.w3.org/2000/svg"
   xmlns="http://www.w3.org/2000/svg"
   xmlns:sodipodi="http://sodipodi.sourceforge.net/DTD/sodipodi-0.dtd"
   xmlns:inkscape="http://www.inkscape.org/namespaces/inkscape"
   viewBox="0 0 8.2387849 11.641666"
   version="1.1"
   x="0px"
   y="0px"
   id="svg867"
   sodipodi:docname="noun_Doctor_3383256.svg"
   width="8.2387848"
   height="11.641666"
   inkscape:version="0.92.3 (2405546, 2018-03-11)">
  <metadata
     id="metadata873">
    <rdf:RDF>
      <cc:Work
         rdf:about="">
        <dc:format>image/svg+xml</dc:format>
        <dc:type
           rdf:resource="http://purl.org/dc/dcmitype/StillImage" />
      </cc:Work>
    </rdf:RDF>
  </metadata>
  <defs
     id="defs871" />
  <sodipodi:namedview
     pagecolor="#ffffff"
     bordercolor="#666666"
     borderopacity="1"
     objecttolerance="10"
     gridtolerance="10"
     guidetolerance="10"
     inkscape:pageopacity="0"
     inkscape:pageshadow="2"
     inkscape:window-width="1920"
     inkscape:window-height="1025"
     id="namedview869"
     showgrid="false"
     inkscape:zoom="53.165354"
     inkscape:cx="4.1193426"
     inkscape:cy="4.2380396"
     inkscape:window-x="0"
     inkscape:window-y="27"
     inkscape:window-maximized="1"
     inkscape:current-layer="svg867" />
  <g
     transform="translate(-2.2306573,-284.82915)"
     id="g861">
    <g
       transform="matrix(0.98633878,0,0,0.98633878,4222.1619,-352.32108)"
       id="g859">
      <path
         transform="matrix(0.26458333,0,0,0.26458333,0,284.29998)"
         d="m -16164.184,1395.5664 a 6.068065,6.068065 0 0 0 -6.068,6.0684 v 8.1191 a 1.8157311,1.8157311 0 0 0 1.816,1.8164 h 27.938 a 1.8157311,1.8157311 0 0 0 1.816,-1.8164 v -8.1191 a 6.068065,6.068065 0 0 0 -6.07,-6.0684 z m 0,0.7969 h 5.233 l 3.775,6.459 a 0.82352008,0.82352008 0 0 0 1.42,0 l 3.776,-6.459 h 5.228 a 5.2714918,5.2714918 0 0 1 5.272,5.2715 v 8.1191 a 1.019158,1.019158 0 0 1 -1.018,1.0195 h -27.938 a 1.019158,1.019158 0 0 1 -1.019,-1.0195 v -8.1191 a 5.2714918,5.2714918 0 0 1 5.271,-5.2715 z m 6.155,0 h 7.125 l -3.565,6.0976 z"
         style="fill:#000000;stroke:none"
         id="path853"
         inkscape:connector-curvature="0" />
      <path
         transform="matrix(0.26458333,0,0,0.26458333,0,284.29998)"
         d="m -16154.736,1366.9648 a 9.2379213,9.2379213 0 0 0 -8.969,9.2344 v 4.4844 a 3.318906,3.318906 0 0 0 1.381,6.1582 7.9426896,7.9426896 0 0 0 1.859,4.0547 v 0.998 a 2.3827092,2.3827092 0 0 0 2.383,2.3828 h 7.23 a 2.3827092,2.3827092 0 0 0 2.383,-2.3828 v -0.998 a 7.9426896,7.9426896 0 0 0 1.86,-4.0547 3.318906,3.318906 0 0 0 1.38,-6.1582 v -4.4844 a 9.2379213,9.2379213 0 0 0 -9.507,-9.2344 z m 0.664,0.9493 a 8.4407806,8.4407806 0 0 1 8.045,8.2851 v 4.1446 a 3.318906,3.318906 0 0 0 -0.784,-0.1231 11.269792,11.269792 0 0 1 -3.619,-3.4844 1.3904979,1.3904979 0 0 0 -1.972,-0.3691 21.719069,21.719069 0 0 1 -9.637,3.8516 3.318906,3.318906 0 0 0 -0.867,0.125 v -4.1446 a 8.4407806,8.4407806 0 0 1 8.834,-8.2851 z m 2.467,8.9902 a 0.59392474,0.59392474 0 0 1 0.509,0.2676 12.066365,12.066365 0 0 0 3.776,3.6719 v 0.2968 l -3.576,5.2442 h -7.141 l -3.576,-5.2442 v -0.1777 a 22.515643,22.515643 0 0 0 9.674,-3.9473 0.59392474,0.59392474 0 0 1 0.334,-0.1113 z m -10.797,4.1426 v 4.6426 a 7.9426895,7.9426895 0 0 0 0,0.3417 2.5223327,2.5223327 0 0 1 0,-4.9843 z m 15.877,0 a 2.5223327,2.5223327 0 0 1 0,4.9843 7.9426895,7.9426895 0 0 0 0,-0.3417 z m -15.088,1.5078 2.711,3.9765 a 2.3827092,2.3827092 0 0 0 -1.563,2.2364 v 0.8066 a 7.1461163,7.1461163 0 0 1 -1.148,-3.8847 z m 14.293,0 v 3.1348 a 7.1461163,7.1461163 0 0 1 -1.149,3.8847 v -0.8066 a 2.3827092,2.3827092 0 0 0 -1.562,-2.2364 z m -10.762,4.6269 h 7.23 a 1.5861361,1.5861361 0 0 1 1.586,1.586 v 3.1269 a 1.5861361,1.5861361 0 0 1 -1.586,1.586 h -7.23 a 1.5861361,1.5861361 0 0 1 -1.586,-1.586 v -3.1269 a 1.5861361,1.5861361 0 0 1 1.586,-1.586 z"
         style="fill:#000000;stroke:none"
         id="path855"
         inkscape:connector-curvature="0" />
    </g>
  </g>
  <text
     x="-2.2306573"
     y="27.170835"
     font-size="5px"
     font-weight="bold"
     id="text863"
     style="font-weight:bold;font-size:5px;font-family:'Helvetica Neue', Helvetica, Arial-Unicode, Arial, Sans-serif;fill:#000000">Created by Phạm Thanh Lộc</text>
  <text
     x="-2.2306573"
     y="32.170837"
     font-size="5px"
     font-weight="bold"
     id="text865"
     style="font-weight:bold;font-size:5px;font-family:'Helvetica Neue', Helvetica, Arial-Unicode, Arial, Sans-serif;fill:#000000">from the Noun Project</text>
</svg>
