<?xml version="1.0" encoding="UTF-8" standalone="no"?>
<svg
   xmlns:dc="http://purl.org/dc/elements/1.1/"
   xmlns:cc="http://creativecommons.org/ns#"
   xmlns:rdf="http://www.w3.org/1999/02/22-rdf-syntax-ns#"
   xmlns:svg="http://www.w3.org/2000/svg"
   xmlns="http://www.w3.org/2000/svg"
   xmlns:sodipodi="http://sodipodi.sourceforge.net/DTD/sodipodi-0.dtd"
   xmlns:inkscape="http://www.inkscape.org/namespaces/inkscape"
   viewBox="0 0 15.875197 15.87502"
   version="1.1"
   x="0px"
   y="0px"
   id="svg167"
   sodipodi:docname="noun_hand sanitizer_3364072.svg"
   width="15.875196"
   height="15.87502"
   inkscape:version="0.92.3 (2405546, 2018-03-11)">
  <metadata
     id="metadata173">
    <rdf:RDF>
      <cc:Work
         rdf:about="">
        <dc:format>image/svg+xml</dc:format>
        <dc:type
           rdf:resource="http://purl.org/dc/dcmitype/StillImage" />
      </cc:Work>
    </rdf:RDF>
  </metadata>
  <defs
     id="defs171" />
  <sodipodi:namedview
     pagecolor="#ffffff"
     bordercolor="#666666"
     borderopacity="1"
     objecttolerance="10"
     gridtolerance="10"
     guidetolerance="10"
     inkscape:pageopacity="0"
     inkscape:pageshadow="2"
     inkscape:window-width="1920"
     inkscape:window-height="1025"
     id="namedview169"
     showgrid="false"
     inkscape:zoom="11.149606"
     inkscape:cx="7.9371711"
     inkscape:cy="5.820886"
     inkscape:window-x="0"
     inkscape:window-y="27"
     inkscape:window-maximized="1"
     inkscape:current-layer="svg167" />
  <g
     transform="translate(-0.52949507,-280.59585)"
     id="g161">
    <path
       style="color:#000000;font-style:normal;font-variant:normal;font-weight:normal;font-stretch:normal;font-size:medium;line-height:normal;font-family:sans-serif;font-variant-ligatures:normal;font-variant-position:normal;font-variant-caps:normal;font-variant-numeric:normal;font-variant-alternates:normal;font-feature-settings:normal;text-indent:0;text-align:start;text-decoration:none;text-decoration-line:none;text-decoration-style:solid;text-decoration-color:#000000;letter-spacing:normal;word-spacing:normal;text-transform:none;writing-mode:lr-tb;direction:ltr;text-orientation:mixed;dominant-baseline:auto;baseline-shift:baseline;text-anchor:start;white-space:normal;shape-padding:0;clip-rule:nonzero;display:inline;overflow:visible;visibility:visible;opacity:1;isolation:auto;mix-blend-mode:normal;color-interpolation:sRGB;color-interpolation-filters:linearRGB;solid-color:#000000;solid-opacity:1;vector-effect:none;fill:#000000;fill-opacity:1;fill-rule:nonzero;stroke:none;stroke-width:0.5291667;stroke-linecap:round;stroke-linejoin:round;stroke-miterlimit:4;stroke-dasharray:none;stroke-dashoffset:0;stroke-opacity:1;color-rendering:auto;image-rendering:auto;shape-rendering:auto;text-rendering:auto;enable-background:accumulate"
       d="m 2.117701,283.50623 v 0.52917 c 0.00765,0.34503 0.521507,0.34503 0.5291668,0 v -0.26355 h 3.1734495 v 1.05627 H 1.3223997 c -0.43862405,0 -0.79271645,0.36774 -0.79271645,0.80667 -4.234e-4,3.34339 0,6.68874 0,10.02936 0,0.43893 0.3540924,0.80667 0.79271645,0.80667 h 5.2932181 c 0.3450352,-0.008 0.3450352,-0.52151 0,-0.52917 H 1.3223997 c -0.1476909,0 -0.2635499,-0.11582 -0.2635499,-0.2775 v -1.31052 H 4.761984 c 0.3450352,-0.008 0.3450352,-0.5215 0,-0.52916 H 1.0588498 v -6.34949 h 6.3494839 v 2.38074 c 0,0.35312 0.529682,0.35312 0.529682,0 v -4.22093 c 0,-0.43893 -0.356674,-0.80667 -0.7953003,-0.80667 H 6.3499999 v -1.32189 c -5.291e-4,-0.14531 -0.118237,-0.26296 -0.2635488,-0.26355 H 5.5567659 v -1.05885 h 2.0060788 l 0.980302,0.98031 c 0.103444,0.10397 0.271727,0.10397 0.375172,0 l 0.792715,-0.79272 c 0.103976,-0.10345 0.103976,-0.27173 0,-0.37517 l -1.321882,-1.3224 c -0.04965,-0.0499 -0.117163,-0.078 -0.187584,-0.078 H 2.3812498 c -0.1453118,5.8e-4 -0.2629667,0.11823 -0.2635488,0.26355 v 1.05885 c -5.292e-4,0.14612 0.11743,0.26503 0.2635488,0.26561 h 0.5291668 v 1.05885 H 2.3685895 c -0.1480053,0.0136 -0.2510208,0.12753 -0.2508885,0.26355 z m 0.5291668,-2.38073 h 5.4451439 l 1.058852,1.05833 -0.42013,0.42013 -0.871265,-0.87333 c -0.04999,-0.0492 -0.117461,-0.0765 -0.187587,-0.076 H 2.6468678 Z m 0.7927154,1.05833 h 1.588016 v 1.05885 h -1.588016 z m 6.3577525,2.64429 c -0.08619,-0.002 -0.167942,0.0381 -0.21911,0.10748 0,0 -0.205414,0.27346 -0.411861,0.61754 -0.206443,0.34407 -0.435633,0.73173 -0.435631,1.12861 3e-6,0.58137 0.476965,1.05885 1.058334,1.05885 0.5813663,0 1.0588523,-0.47748 1.0588493,-1.05885 0,-0.39687 -0.229187,-0.78454 -0.435631,-1.12861 -0.206446,-0.34408 -0.410313,-0.61754 -0.410313,-0.61754 -0.04813,-0.0653 -0.1235563,-0.10492 -0.2046373,-0.10748 z m -8.474936,0.52968 c 1.9405133,2.9e-4 3.8817851,0 5.8203157,0 0.1476931,0 0.2656183,0.1153 0.2656183,0.27699 v 1.31051 H 1.0588498 v -1.31051 c 0,-0.16169 0.1158579,-0.27699 0.2635499,-0.27699 z m 8.467184,0.21291 c 0.06809,0.0996 0.08487,0.11267 0.169497,0.25373 0.1904313,0.31738 0.3596703,0.72502 0.3596703,0.85731 0,0.29538 -0.233781,0.52968 -0.5291673,0.52968 -0.295384,0 -0.529683,-0.23429 -0.529683,-0.52968 0,-0.13229 0.169238,-0.53993 0.359667,-0.85731 0.0845,-0.14084 0.101975,-0.15423 0.170016,-0.25373 z m 5.3221553,5.7304 c 0.0454,0.0874 0.135599,0.14236 0.234095,0.14262 h 0.529167 v 3.43907 h -0.529167 c -0.0705,1.5e-4 -0.138015,0.0284 -0.187584,0.0786 0,0 -1.011338,0.9803 -2.19315,0.9803 H 10.318751 8.3343747 c -0.224448,0 -0.396875,-0.17191 -0.396875,-0.39636 0,-0.22444 0.172427,-0.39636 0.396875,-0.39636 h 1.9843763 c 0.35312,0 0.35312,-0.52968 0,-0.52968 H 7.2755257 c -0.2244487,0 -0.3963591,-0.17398 -0.3963591,-0.39842 0,-0.22445 0.171913,-0.39636 0.3963591,-0.39636 h 3.0432253 c 0.360664,0.008 0.360664,-0.53714 0,-0.52917 H 6.2171923 c -0.2244513,0 -0.396875,-0.17243 -0.396875,-0.39687 0,-0.22445 0.172429,-0.39636 0.396875,-0.39636 h 4.1015587 c 0.345035,-0.008 0.345035,-0.52151 0,-0.52917 H 7.0119742 c -0.2244619,0 -0.3963564,-0.1719 -0.3963564,-0.39636 0,-0.22442 0.1719289,-0.39636 0.3963564,-0.39636 h 2.5135415 c 0.353121,0 0.353121,-0.52968 0,-0.52968 H 7.0119742 c -0.5084498,0 -0.9255231,0.41759 -0.9255231,0.92604 0,0.14362 0.035843,0.27825 0.095083,0.39998 -0.4918313,0.0193 -0.8903837,0.42563 -0.8903837,0.92191 0,0.50845 0.4175918,0.92603 0.9260416,0.92604 h 0.2258246 c -0.0581,0.12077 -0.093017,0.25422 -0.093017,0.39636 0,0.50845 0.4170733,0.9281 0.9255258,0.9281 h 0.2263433 c -0.0581,0.12077 -0.09353,0.25422 -0.09353,0.39636 0,0.50846 0.417592,0.92553 0.926041,0.92553 h 1.9843763 2.646349 c 1.363191,0 2.32868,-0.92268 2.467033,-1.05834 h 0.706935 c 0.146119,5.6e-4 0.265031,-0.11743 0.265615,-0.26355 v -3.96875 c 7.94e-4,-0.14713 -0.118485,-0.26669 -0.265615,-0.26613 h -0.656291 c -0.114332,-0.21169 -0.568452,-1.00512 -1.496034,-1.25367 l -3.550687,-1.09347 c -0.8633723,-0.24095 -1.4586613,0.7309 -1.0293963,1.33377 0.122103,0.18383 0.294106,0.31691 0.472324,0.42374 0.5251743,0.31482 0.9793373,0.58651 1.5045113,0.90132 0.09777,1.03272 0.881409,1.80601 1.845156,1.80601 0.353121,0 0.353121,-0.52968 0,-0.52968 -0.720272,0 -1.321884,-0.66843 -1.321884,-1.42937 -1.67e-4,-0.0931 -0.04923,-0.17923 -0.129191,-0.22686 -0.542208,-0.32502 -1.084564,-0.64959 -1.626775,-0.97462 -0.136091,-0.0816 -0.2459413,-0.17585 -0.3028243,-0.26148 -0.182946,-0.27913 0.127924,-0.623 0.4314993,-0.53744 l 3.564382,1.09787 c 0.747572,0.20108 1.267881,1.13094 1.267881,1.13094 z M 3.7031321,288.53332 c -0.1453119,5.8e-4 -0.2629668,0.11823 -0.2635489,0.26355 v 1.05885 H 2.3812498 c -0.1461188,5.8e-4 -0.2641071,0.11949 -0.2635488,0.26561 v 1.05885 c 5.821e-4,0.14532 0.118237,0.26297 0.2635488,0.26355 h 1.0583334 v 1.05834 c 5.292e-4,0.14531 0.118237,0.26297 0.2635489,0.26355 H 4.761984 c 0.1461188,5.5e-4 0.2650305,-0.11743 0.2656152,-0.26355 v -1.05834 h 0.2635515 c 0.3531208,0 0.3531208,-0.52968 0,-0.52968 H 4.761984 c -0.1463225,5.8e-4 -0.2643955,0.11981 -0.2635515,0.26613 v 1.05627 H 3.9692658 v -1.05627 c 7.938e-4,-0.14733 -0.1188005,-0.26698 -0.2661337,-0.26613 H 2.6468678 v -0.52917 h 1.0562643 c 0.1463225,8.5e-4 0.265549,-0.11722 0.2661337,-0.26355 V 289.063 h 0.5291667 v 1.05833 c 5.292e-4,0.14532 0.118237,0.26297 0.2635515,0.26355 h 1.3244671 c 0.3606774,0.008 0.3606774,-0.53715 0,-0.52916 H 5.0275992 v -1.05885 c -5.847e-4,-0.14612 -0.1194964,-0.26411 -0.2656152,-0.26355 z"
       id="path159"
       inkscape:connector-curvature="0" />
  </g>
  <text
     x="-0.52949506"
     y="31.404135"
     font-size="5px"
     font-weight="bold"
     id="text163"
     style="font-weight:bold;font-size:5px;font-family:'Helvetica Neue', Helvetica, Arial-Unicode, Arial, Sans-serif;fill:#000000" />
  <text
     x="-0.52949506"
     y="36.404133"
     font-size="5px"
     font-weight="bold"
     id="text165"
     style="font-weight:bold;font-size:5px;font-family:'Helvetica Neue', Helvetica, Arial-Unicode, Arial, Sans-serif;fill:#000000" />
</svg>
