<?xml version="1.0" encoding="UTF-8" standalone="no"?>
<svg
   xmlns:dc="http://purl.org/dc/elements/1.1/"
   xmlns:cc="http://creativecommons.org/ns#"
   xmlns:rdf="http://www.w3.org/1999/02/22-rdf-syntax-ns#"
   xmlns:svg="http://www.w3.org/2000/svg"
   xmlns="http://www.w3.org/2000/svg"
   xmlns:sodipodi="http://sodipodi.sourceforge.net/DTD/sodipodi-0.dtd"
   xmlns:inkscape="http://www.inkscape.org/namespaces/inkscape"
   data-name="Слой 1"
   viewBox="0 0 105.29895 128.07587"
   x="0px"
   y="0px"
   version="1.1"
   id="svg1223"
   sodipodi:docname="noun_labored breathing_3377527.svg"
   width="105.29895"
   height="128.07587"
   inkscape:version="0.92.3 (2405546, 2018-03-11)">
  <metadata
     id="metadata1229">
    <rdf:RDF>
      <cc:Work
         rdf:about="">
        <dc:format>image/svg+xml</dc:format>
        <dc:type
           rdf:resource="http://purl.org/dc/dcmitype/StillImage" />
      </cc:Work>
    </rdf:RDF>
  </metadata>
  <defs
     id="defs1227" />
  <sodipodi:namedview
     pagecolor="#ffffff"
     bordercolor="#666666"
     borderopacity="1"
     objecttolerance="10"
     gridtolerance="10"
     guidetolerance="10"
     inkscape:pageopacity="0"
     inkscape:pageshadow="2"
     inkscape:window-width="1920"
     inkscape:window-height="1025"
     id="namedview1225"
     showgrid="false"
     inkscape:zoom="5.275"
     inkscape:cx="30.63261"
     inkscape:cy="54.063283"
     inkscape:window-x="0"
     inkscape:window-y="27"
     inkscape:window-maximized="1"
     inkscape:current-layer="svg1223" />
  <title
     id="title1183">ic_dyspnea</title>
  <path
     d="m 87.896305,102.27157 c -2.15,-1.22 -4.59,-2.600001 -5.43,-3.670001 -1.71,-2.2 -2.39,-8.06 -2.23,-11.44 0.08,-1.67 2.39,-7.55 4.63,-13.24 3.43,-8.74 7.33,-18.64 7.79,-24.13 1,-12.27 -2.41,-29 -15.16,-39.18 -5.82,-4.6100001 -16.46,-9.85000015 -28.88,-10.54000015 -9.86,-0.54 -24,1.72000005 -35.54,15.64000015 -5.4900002,6.63 -8.3800002,11.8 -8.5800002,15.35 0,0.2 -0.9,20 0.7,22.21 0.21,0.28 0.45,0.59 0.71,0.91 a 8.69,8.69 0 0 1 1.41,2.14 c -0.19,0.66 -1.22,3.11 -6.31999998,12.21 l -0.38,0.66 a 6.42,6.42 0 0 0 1.29999998,7.32 10.85,10.85 0 0 0 3.4,1.49 c 0.58,0.19 1.45,0.47 2,0.7 a 9.48,9.48 0 0 1 -0.7,2.93 c -1.42,2.49 1.61,4.33 4.2800002,6 l 0.55,0.33 c -0.27,0.42 -0.6,0.92 -0.85,1.27 a 12.56,12.56 0 0 0 -1.8500002,3.34 c -0.41,1.55 0.86,2.44 1.7000002,3 a 7.29,7.29 0 0 1 1.33,1.07 v 0 c 0,0.1 -0.1,0.36 -0.16,0.57 a 21,21 0 0 0 -0.86,4.000001 c -0.54,4.23 3.95,7.36 7.09,8.44 1.54,0.53 8.88,-0.44 12.6,-1.61 a 101,101 0 0 1 6.26,18.45 2,2 0 0 0 2,1.57 1.7,1.7 0 0 0 0.44,0 2,2 0 0 0 1.52,-2.38 108.88,108.88 0 0 0 -4.07,-13.38 c -3,-8 -4,-8.27 -4.81,-8.52 a 2.13,2.13 0 0 0 -1.89,0.35 47.46,47.46 0 0 1 -10.79,1.76 c -2.22,-0.79 -4.52,-2.66 -4.34,-4.13 a 18,18 0 0 1 0.71,-3.270001 8.83,8.83 0 0 0 0.28,-1 l 0.54,-0.21 a 2,2 0 1 0 -1.43,-3.73 l -0.42,0.16 a 10.14,10.14 0 0 0 -1.25,-1 c 0.25,-0.39 0.53,-0.81 0.75,-1.12 1.33,-2 2.85,-4.17 1.19,-5.83 a 11.67,11.67 0 0 0 -2.12,-1.45 28.44,28.44 0 0 1 -2.42,-1.58 l 0.15,-0.49 a 1.1,1.1 0 0 0 0.18,0 l 1.92,-0.42 a 2.0006624,2.0006624 0 0 0 -0.85,-3.91 l -0.63,0.13 c 0,-0.17 0,-0.32 -0.05,-0.46 -0.3,-1.78 -2.1600002,-2.38 -4.7300002,-3.22 a 20,20 0 0 1 -2,-0.72 2.69,2.69 0 0 1 -0.37,-2.3 l 0.36,-0.66 c 6.2100002,-11.46 6.7400002,-13.28 6.7400002,-14.27 0,-1.86 -1.27,-3.44 -2.2800002,-4.72 -0.16,-0.19 -0.3,-0.38 -0.43,-0.55 -0.48,-2.22 -0.39,-14.94 -0.11,-19.85 0.14,-2.57 2.9300002,-7.32 7.6600002,-13 19.16,-23.2300001 48.45,-12.8500001 58.85,-4.55 14.87,11.87 14,31.83 13.66,35.71 -0.41,4.91 -4.35,14.94 -7.52,23 -3.06,7.79 -4.83,12.3 -4.91,14.55 -0.12,2.65 0.18,10.36 3.08,14.080001 1.32,1.7 3.89,3.16 6.61,4.7 1.62,0.92 4.32,2.45 4.79,3.19 a 2.0012496,2.0012496 0 0 0 3.9,-0.9 c -0.45,-2.25 -3.22,-3.82 -6.72,-5.8 z m -55.47,4.73 a 1.83,1.83 0 0 1 -0.64,0.42 2.52,2.52 0 0 0 0.64,-0.42 z"
     id="path1185"
     inkscape:connector-curvature="0" />
  <path
     d="m 69.316305,113.66157 a 2.0024984,2.0024984 0 1 0 -3.32,2.24 c 0.78,1.15 1.54,2.24 2.27,3.27 a 2.0006249,2.0006249 0 0 0 3.26,-2.32 c -0.72,-1 -1.46,-2.07 -2.21,-3.19 z"
     id="path1187"
     inkscape:connector-curvature="0" />
  <path
     d="m 63.386305,103.75157 a 2.003578,2.003578 0 0 0 -3.57,1.82 c 0.58,1.13 1.23,2.32 1.93,3.54 a 2,2 0 0 0 1.73,1 2,2 0 0 0 1,-0.27 2,2 0 0 0 0.73,-2.73 c -0.66,-1.11 -1.28,-2.28 -1.82,-3.36 z"
     id="path1189"
     inkscape:connector-curvature="0" />
  <path
     d="m 55.036305,94.581569 c 0.48,1.21 1,2.44 1.47,3.68 a 2,2 0 0 0 1.86,1.25 2,2 0 0 0 0.75,-0.15 2,2 0 0 0 1.1,-2.61 c -0.51,-1.23 -1,-2.44 -1.45,-3.63 a 2.0027793,2.0027793 0 0 0 -3.73,1.46 z"
     id="path1191"
     inkscape:connector-curvature="0" />
  <path
     d="m 45.586305,78.521569 c 0.19,0.1 0.38,0.2 0.56,0.31 a 2,2 0 0 0 1.05,0.3 2,2 0 0 0 1,-3.71 10.18,10.18 0 0 0 -0.92,-0.5 11.7,11.7 0 0 0 -3.59,-1 2.0149504,2.0149504 0 0 0 -0.49,4 8,8 0 0 1 2.39,0.6 z"
     id="path1193"
     inkscape:connector-curvature="0" />
  <path
     d="m 53.986305,82.071569 a 2.0028105,2.0028105 0 1 0 -3.51,1.93 c 0.53,1 1.06,2.06 1.65,3.38 a 2,2 0 0 0 1.83,1.19 2.05,2.05 0 0 0 0.8,-0.17 2,2 0 0 0 1,-2.64 c -0.6,-1.42 -1.19,-2.62 -1.77,-3.69 z"
     id="path1195"
     inkscape:connector-curvature="0" />
  <path
     d="m 25.906305,77.111569 a 2,2 0 0 0 -2.3,-1.65 l -3.91,0.69 a 2.008538,2.008538 0 0 0 0.37,4 1.47,1.47 0 0 0 0.36,0 c 1.22,-0.22 2.51,-0.45 3.84,-0.67 a 2,2 0 0 0 1.64,-2.37 z"
     id="path1197"
     inkscape:connector-curvature="0" />
  <path
     d="m 37.626305,75.801569 a 2,2 0 0 0 -2.14,-1.8 c -1.24,0.09 -2.58,0.22 -4,0.38 a 2.0033035,2.0033035 0 0 0 0.23,4 h 0.23 c 1.37,-0.22 2.65,-0.38 3.83,-0.38 a 2,2 0 0 0 1.85,-2.2 z"
     id="path1199"
     inkscape:connector-curvature="0" />
  <path
     d="m 76.156305,123.15157 a 2.002049,2.002049 0 0 0 -3.22,2.38 c 0.59,0.79 0.79,1.1 0.86,1.22 a 2,2 0 0 0 1.85,1.25 2.25,2.25 0 0 0 0.58,-0.08 2,2 0 0 0 1.34,-2.49 8.07,8.07 0 0 0 -1.41,-2.28 z"
     id="path1201"
     inkscape:connector-curvature="0" />
  <path
     d="m 55.976305,104.35157 c -0.64,-1.16 -1.34,-2.33 -2.08,-3.48 a 2,2 0 0 0 -3.37,2.13 c 0.7,1.08 1.36,2.18 2,3.26 a 2,2 0 1 0 3.49,-1.94 z"
     id="path1203"
     inkscape:connector-curvature="0" />
  <path
     d="m 46.376305,91.291569 a 2,2 0 1 0 -2.83,2.82 c 0.79,0.8 1.64,1.74 2.5,2.78 a 2,2 0 0 0 1.54,0.72 2,2 0 0 0 1.54,-3.28 c -0.94,-1.13 -1.87,-2.16 -2.75,-3.04 z"
     id="path1205"
     inkscape:connector-curvature="0" />
  <path
     d="m 22.906305,94.631569 a 1.87,1.87 0 0 0 0.62,-0.1 c 1.19,-0.39 2.43,-0.77 3.69,-1.14 a 2,2 0 1 0 -1.12,-3.84 c -1.3,0.38 -2.59,0.78 -3.81,1.18 a 2,2 0 0 0 0.62,3.9 z"
     id="path1207"
     inkscape:connector-curvature="0" />
  <path
     d="m 34.316305,91.661569 a 1.84,1.84 0 0 0 0.33,0 22.41,22.41 0 0 1 3.58,-0.34 2,2 0 1 0 0,-4 v 0 a 26.86,26.86 0 0 0 -4.23,0.39 2.0063898,2.0063898 0 0 0 0.32,4 z"
     id="path1209"
     inkscape:connector-curvature="0" />
  <path
     d="m 58.976305,118.18157 a 2,2 0 0 0 1.52,-2.38 38.3,38.3 0 0 0 -1.11,-4 2.0017617,2.0017617 0 0 0 -3.79,1.29 35.21,35.21 0 0 1 1,3.57 2,2 0 0 0 2,1.56 1.58,1.58 0 0 0 0.38,-0.04 z"
     id="path1211"
     inkscape:connector-curvature="0" />
  <path
     d="m 61.556305,124.56157 v -0.64 a 2.002024,2.002024 0 0 0 -4,0.18 v 0.62 a 9.54,9.54 0 0 0 0.16,1.77 2.05,2.05 0 0 0 2,1.55 1.89,1.89 0 0 0 0.47,-0.06 2,2 0 0 0 1.46,-2.38 c -0.07,-0.2 -0.07,-0.6 -0.09,-1.04 z"
     id="path1213"
     inkscape:connector-curvature="0" />
  <path
     d="m 22.946305,115.22157 -8.85,-2.48 a 2,2 0 1 0 -1.08,3.85 l 4.22,1.19 -11.4200002,6.48 a 2,2 0 0 0 1,3.74 2,2 0 0 0 1,-0.26 l 11.3800002,-6.46 -1.17,4.18 a 2,2 0 0 0 1.38,2.47 2.13,2.13 0 0 0 0.55,0.07 2,2 0 0 0 1.92,-1.46 l 2.44,-8.85 a 2,2 0 0 0 -1.37,-2.47 z"
     id="path1215"
     inkscape:connector-curvature="0" />
  <path
     d="m 105.0263,80.801569 a 2,2 0 0 0 -2.73,-0.75 l -11.379995,6.46 1.17,-4.18 a 2,2 0 1 0 -3.85,-1.08 l -2.48,8.85 a 2,2 0 0 0 1.38,2.47 l 8.85,2.48 a 2.05,2.05 0 0 0 0.54,0.07 2,2 0 0 0 0.54,-3.92 l -4.22,-1.2 11.469995,-6.47 a 2,2 0 0 0 0.71,-2.73 z"
     id="path1217"
     inkscape:connector-curvature="0" />
</svg>
