<?xml version="1.0" encoding="UTF-8" standalone="no"?>
<svg
   xmlns:x="adobe:ns:meta/"
   xmlns:dc="http://purl.org/dc/elements/1.1/"
   xmlns:cc="http://creativecommons.org/ns#"
   xmlns:rdf="http://www.w3.org/1999/02/22-rdf-syntax-ns#"
   xmlns:svg="http://www.w3.org/2000/svg"
   xmlns="http://www.w3.org/2000/svg"
   xmlns:sodipodi="http://sodipodi.sourceforge.net/DTD/sodipodi-0.dtd"
   xmlns:inkscape="http://www.inkscape.org/namespaces/inkscape"
   viewBox="0 0 480 480.00018"
   x="0px"
   y="0px"
   version="1.1"
   id="svg1432"
   sodipodi:docname="noun_Lungs_3381803.svg"
   width="480"
   height="480.00018"
   inkscape:version="0.92.3 (2405546, 2018-03-11)">
  <defs
     id="defs1436" />
  <sodipodi:namedview
     pagecolor="#ffffff"
     bordercolor="#666666"
     borderopacity="1"
     objecttolerance="10"
     gridtolerance="10"
     guidetolerance="10"
     inkscape:pageopacity="0"
     inkscape:pageshadow="2"
     inkscape:window-width="1920"
     inkscape:window-height="1025"
     id="namedview1434"
     showgrid="false"
     inkscape:zoom="1.31875"
     inkscape:cx="240"
     inkscape:cy="78.009347"
     inkscape:window-x="0"
     inkscape:window-y="27"
     inkscape:window-maximized="1"
     inkscape:current-layer="svg1432" />
  <desc
     id="desc1420">Lungs icon for website, application, printing, document, poster design, etc.</desc>
  <metadata
     id="metadata1422">
<?xpacket begin="&#65279;" id="W5M0MpCehiHzreSzNTczkc9d"?>    <x:xmpmeta
       x:xmptk="Adobe XMP Core 5.6-c145 79.162955, 2018/05/10-01:07:16        " />
<?xpacket end="w"?>    <rdf:RDF>
      <cc:Work
         rdf:about="">
        <dc:format>image/svg+xml</dc:format>
        <dc:type
           rdf:resource="http://purl.org/dc/dcmitype/StillImage" />
      </cc:Work>
    </rdf:RDF>
  </metadata>
  <g
     id="g1426"
     transform="translate(-16,-16)">
    <path
       d="M 412.824,175.749 A 57.446,57.446 0 0 0 304,201.44 v 54.267 L 288,237.04 V 48 a 32,32 0 0 0 -64,0 v 189.04 l -16,18.667 V 201.44 A 57.444,57.444 0 0 0 99.174,175.753 l -15.13,30.265 14.311,7.154 15.129,-30.261 A 41.446,41.446 0 0 1 192,201.44 v 72.934 l -8.452,9.86 -8.006,-8 -7.269,-50.886 14.882,-29.765 -14.31,-7.156 -11.037,22.072 -24.151,-24.151 -11.314,11.314 30.115,30.114 4.228,29.6 -31.029,-31.03 a 8,8 0 0 0 -11.314,0 l -8,8 a 8,8 0 0 0 -0.9,10.245 l 52.151,74.5 -0.91,0.911 h -9.373 L 118.572,291.263 103.152,260.424 88.842,267.58 99.056,288 H 72 v 16 h 36.687 l 16,16 H 72 a 8,8 0 0 0 -8,8 v 8 a 8,8 0 0 0 6.06,7.761 l 51.905,12.976 -8.938,11.172 -22.5,-7.5 c -0.2,-0.065 -0.4,-0.1 -0.59,-0.171 l -32,-8 -3.88,15.522 18.292,4.573 -22.006,22.01 11.314,11.314 28.5,-28.5 12.214,4.072 -36.624,45.78 c -5.645,7.065 -0.226,27.9 11.068,19.381 l 64.266,-48.493 3.035,14.166 -37.116,29.69 10,12.494 30.869,-24.695 4.31,20.124 A 8,8 0 0 0 160,456 h 8 a 8,8 0 0 0 8,-8 v -81.189 l 16,-15.159 V 447.03 A 33.506,33.506 0 0 1 182.343,470.343 32.757,32.757 0 0 1 159.03,480 H 80 A 48.054,48.054 0 0 1 32,432 v -69.11 a 72.3,72.3 0 0 1 7.606,-32.2 L 90.557,228.772 76.245,221.618 25.3,323.53 A 88.384,88.384 0 0 0 16,362.89 V 432 a 64.072,64.072 0 0 0 64,64 h 79.03 A 48.972,48.972 0 0 0 208,447.03 V 336.494 l 48,-45.474 48,45.474 V 447.03 A 50.78,50.78 0 0 0 318.343,481.657 48.654,48.654 0 0 0 352.97,496 H 432 a 64.072,64.072 0 0 0 64,-64 h -16 a 48.054,48.054 0 0 1 -48,48 H 352.97 A 32.972,32.972 0 0 1 320,447.03 v -95.378 l 16,15.158 V 448 a 8,8 0 0 0 8,8 h 8 a 8,8 0 0 0 7.823,-6.324 l 4.31,-20.124 30.867,24.695 10,-12.494 -37.12,-29.694 3.035,-14.166 64.267,48.493 c 10.937,8.252 16.618,-12.4 11.065,-19.384 l -36.622,-45.777 12.214,-4.072 28.5,28.5 11.314,-11.314 -22.009,-22.009 18.292,-4.573 -3.88,-15.522 c 0,0 -32,8 -32,8.018 -0.2,0.05 -0.4,0.088 -0.594,0.153 l -22.5,7.5 -8.938,-11.172 51.9,-12.976 A 8,8 0 0 0 448,336 v -8 a 8,8 0 0 0 -8,-8 h -52.686 l 16,-16 H 440 v -16 h -27.056 l 10.211,-20.422 -14.31,-7.156 -15.42,30.839 L 364.686,320 h -9.373 l -0.91,-0.911 52.151,-74.5 a 8,8 0 0 0 -0.9,-10.245 l -8,-8 a 8,8 0 0 0 -11.314,0 l -31.029,31.03 4.228,-29.6 30.115,-30.114 -11.314,-11.314 -24.151,24.151 -11.037,-22.072 -14.31,7.156 14.882,29.765 -7.269,50.886 -8.006,8 L 320,274.374 V 201.44 a 41.444,41.444 0 0 1 78.514,-18.533 L 472.4,330.69 a 72.31,72.31 0 0 1 7.6,32.2 v 56.673 h 16 V 362.89 a 88.387,88.387 0 0 0 -9.294,-39.357 z M 256,32 a 16,16 0 1 1 -16,16 16.019,16.019 0 0 1 16,-16 z m -16,43.695 a 31.885,31.885 0 0 0 32,0 V 112 H 240 Z M 240,128 h 32 v 32 h -32 z m 0,48 h 32 v 32 h -32 z m -77.5,181.562 a 8,8 0 0 0 -2.5,5.808 v 46.437 l -5.9,-27.533 a 8,8 0 0 0 -12.642,-4.71 l -39.53,29.83 L 142.247,357 A 8,8 0 0 0 137.94,344.241 L 104.985,336 H 160 a 8,8 0 0 0 3.751,-0.935 l 10.943,10.943 z M 186.314,335 175.061,323.748 a 8,8 0 0 0 -0.507,-8.336 l -40.938,-58.482 44.727,44.727 a 8,8 0 0 0 11.732,-0.451 l 9.146,-10.671 16.554,16.554 z M 261.5,274.192 a 8,8 0 0 0 -11,0 L 227.4,296.08 209.671,278.351 238.08,245.207 A 8,8 0 0 0 240,240 v -16 h 32 v 16 a 8,8 0 0 0 1.926,5.207 l 28.409,33.144 -17.73,17.73 z M 355.314,336 h 51.7 l -32.955,8.239 A 8,8 0 0 0 369.753,357 l 40.316,50.4 -39.53,-29.83 a 8,8 0 0 0 -12.642,4.71 L 352,409.807 V 363.37 a 8,8 0 0 0 -2.5,-5.806 l -8.09,-7.664 z m -33.389,-34.794 a 8,8 0 0 0 11.732,0.451 l 44.727,-44.727 -40.938,58.482 a 8,8 0 0 0 0.9,10.245 l 2.34,2.343 -10.892,10.892 -33.569,-31.8 16.554,-16.554 z"
       id="path1424"
       inkscape:connector-curvature="0" />
  </g>
</svg>
