<?xml version="1.0" encoding="UTF-8" standalone="no"?>
<svg
   xmlns:x="adobe:ns:meta/"
   xmlns:dc="http://purl.org/dc/elements/1.1/"
   xmlns:cc="http://creativecommons.org/ns#"
   xmlns:rdf="http://www.w3.org/1999/02/22-rdf-syntax-ns#"
   xmlns:svg="http://www.w3.org/2000/svg"
   xmlns="http://www.w3.org/2000/svg"
   xmlns:sodipodi="http://sodipodi.sourceforge.net/DTD/sodipodi-0.dtd"
   xmlns:inkscape="http://www.inkscape.org/namespaces/inkscape"
   viewBox="0 0 470.35797 480"
   x="0px"
   y="0px"
   version="1.1"
   id="svg251"
   sodipodi:docname="noun_dry cough_3381787.svg"
   width="470.35797"
   height="480"
   inkscape:version="0.92.3 (2405546, 2018-03-11)">
  <defs
     id="defs255" />
  <sodipodi:namedview
     pagecolor="#ffffff"
     bordercolor="#666666"
     borderopacity="1"
     objecttolerance="10"
     gridtolerance="10"
     guidetolerance="10"
     inkscape:pageopacity="0"
     inkscape:pageshadow="2"
     inkscape:window-width="1920"
     inkscape:window-height="1025"
     id="namedview253"
     showgrid="false"
     inkscape:zoom="1.31875"
     inkscape:cx="238.36199"
     inkscape:cy="176"
     inkscape:window-x="0"
     inkscape:window-y="27"
     inkscape:window-maximized="1"
     inkscape:current-layer="svg251" />
  <desc
     id="desc239">Dry cough icon for website, application, printing, document, poster design, etc.</desc>
  <metadata
     id="metadata241">
<?xpacket begin="&#65279;" id="W5M0MpCehiHzreSzNTczkc9d"?>    <x:xmpmeta
       x:xmptk="Adobe XMP Core 5.6-c145 79.162955, 2018/05/10-01:07:16        " />
<?xpacket end="w"?>    <rdf:RDF>
      <cc:Work
         rdf:about="">
        <dc:format>image/svg+xml</dc:format>
        <dc:type
           rdf:resource="http://purl.org/dc/dcmitype/StillImage" />
      </cc:Work>
    </rdf:RDF>
  </metadata>
  <g
     id="g245"
     transform="translate(-17.638014,-15.999995)">
    <path
       d="m 216,448 h 16 v 16 h -16 z m 24,-328 a 8,8 0 0 0 -4.422,-7.155 l -32,-16 -7.156,14.31 17.689,8.845 -17.689,8.845 7.156,14.31 32,-16 A 8,8 0 0 0 240,120 Z m 36.422,7.155 32,16 7.156,-14.31 -17.689,-8.845 17.689,-8.845 -7.156,-14.31 -32,16 a 8,8 0 0 0 0,14.31 z m -242.573,-16.6 a 13.1,13.1 0 0 0 3.626,11.608 L 48,132.687 l 56,-56 V 44 a 4,4 0 0 0 -8,0 v 4 A 8,8 0 0 1 83.562,54.656 L 64.878,42.2 a 13.105,13.105 0 0 0 -18.2,3.684 L 33.326,37.062 a 29.1,29.1 0 0 1 40.428,-8.174 l 8.589,5.726 A 20,20 0 0 1 120,44 v 32.5 l 25.115,23.184 A 31.972,31.972 0 0 1 160,96 h 3.039 A 95.144,95.144 0 0 1 172.225,73.131 31.982,31.982 0 0 1 192,16 h 88 a 72.081,72.081 0 0 1 72,72 v 8 a 32,32 0 0 1 25.969,50.692 85.61,85.61 0 0 1 78.031,85.242 c 0,29.522 0.867,59.215 -1.916,88.639 -1.015,10.841 -2.482,21.874 -4.361,32.784 l -15.768,-2.714 c 1.809,-10.507 3.222,-21.128 4.2,-31.569 2.6,-28.971 1.845,-58.085 1.845,-87.14 A 69.558,69.558 0 0 0 335.93,171.54 l -19.961,11.406 A 8,8 0 0 1 312,184 h -96 a 8,8 0 0 1 -5.426,-2.122 L 112.222,91.092 59.313,144 76,160.687 114.343,122.343 125.657,133.657 87.313,172 l 83.6,83.6 a 55.634,55.634 0 0 0 39.6,16.4 H 368 v 16 h -77.425 a 27.368,27.368 0 0 1 6,6.019 l 23.849,32.818 a 27.625,27.625 0 0 1 -6.038,38.153 l -0.1,0.069 L 264,400.474 V 480 H 409.38 L 431,366.5 l 15.72,3 -22.861,120 A 8,8 0 0 1 416,496 H 136 A 80.091,80.091 0 0 1 56,416 V 248 a 103.943,103.943 0 0 1 13.918,-52.007 l 13.849,8.014 A 87.92,87.92 0 0 0 72,248 v 146.783 l 64,-33.5 V 291 h 16 v 61.907 l 20.546,-10.755 14.233,-51.224 a 24.845,24.845 0 0 1 2.574,-6.075 A 71.636,71.636 0 0 1 159.6,266.912 L 26.161,133.475 a 29.108,29.108 0 0 1 -8.054,-25.784 l 9.658,-53.122 15.742,2.862 z m 149.24,330.5 -29.745,-44.617 13.312,-8.876 29.076,43.615 22.22,-17.362 -1,-1.356 L 176.943,357.91 72,412.842 V 416 a 64.07,64.07 0 0 0 61.332,63.932 z M 248,411.741 233.757,421.771 159.232,480 H 248 Z M 233.749,288 a 24.731,24.731 0 0 1 1.6,13.425 l -0.594,3.754 L 248,295.556 V 288 Z m -31.549,7.186 -14.128,50.846 37.009,50.453 5.72,7.8 74.219,-52.266 a 11.312,11.312 0 0 0 2.46,-15.773 l -23.849,-32.818 a 11.314,11.314 0 0 0 -15.8,-2.5 l -39.29,28.552 a 8,8 0 0 1 -12.6,-7.722 l 3.613,-22.83 A 8.886,8.886 0 0 0 202.208,295.19 Z M 352,144 a 16,16 0 0 0 0,-32 z M 176,48 a 16.019,16.019 0 0 0 16,16 h 120 a 8,8 0 0 1 6.656,3.562 L 336,93.578 V 88 A 56.064,56.064 0 0 0 280,32 h -88 a 16.019,16.019 0 0 0 -16,16 z m 0,80.19 39.486,36.448 A 69.16,69.16 0 0 1 256,152 c 16.765,0 32.9,5.8 44.8,16 h 9.071 l 18.116,-10.352 A 86.037,86.037 0 0 1 336,153.619 v -31.2 L 307.719,80 H 192 A 32.089,32.089 0 0 1 186.951,79.6 79.54,79.54 0 0 0 176,120 Z m 259.578,0.655 -7.182,14.3 c 1.781,0.906 43.6,22.87 43.6,80.857 h 16 C 488,155.839 437.718,129.915 435.578,128.845 Z m -68.665,-63.659 12.536,9.942 34.5,-43.5 -12.536,-9.943 z m 25.977,42.472 5.58,15 64.5,-24 -5.58,-14.995 z M 324.823,371.287 334.542,384 c 29.128,-22.274 22.769,-56 22.484,-57.421 l -15.689,3.137 c 0.05,0.248 4.775,25.291 -16.514,41.571 z m -14.6,-159.606 16.426,20.2 12.413,-10.095 -16.426,-20.2 z m -22.132,31.73 1.21,-23.539 -15.979,-0.822 -1.21,23.539 z"
       id="path243"
       inkscape:connector-curvature="0" />
  </g>
</svg>
