<?xml version="1.0" encoding="UTF-8" standalone="no"?>
<svg
   xmlns:dc="http://purl.org/dc/elements/1.1/"
   xmlns:cc="http://creativecommons.org/ns#"
   xmlns:rdf="http://www.w3.org/1999/02/22-rdf-syntax-ns#"
   xmlns:svg="http://www.w3.org/2000/svg"
   xmlns="http://www.w3.org/2000/svg"
   xmlns:sodipodi="http://sodipodi.sourceforge.net/DTD/sodipodi-0.dtd"
   xmlns:inkscape="http://www.inkscape.org/namespaces/inkscape"
   viewBox="0 0 480 448"
   x="0px"
   y="0px"
   version="1.1"
   id="svg76"
   sodipodi:docname="noun_Hand Washing_3140461.svg"
   width="480"
   height="448"
   inkscape:version="0.92.3 (2405546, 2018-03-11)">
  <metadata
     id="metadata82">
    <rdf:RDF>
      <cc:Work
         rdf:about="">
        <dc:format>image/svg+xml</dc:format>
        <dc:type
           rdf:resource="http://purl.org/dc/dcmitype/StillImage" />
      </cc:Work>
    </rdf:RDF>
  </metadata>
  <defs
     id="defs80" />
  <sodipodi:namedview
     pagecolor="#ffffff"
     bordercolor="#666666"
     borderopacity="1"
     objecttolerance="10"
     gridtolerance="10"
     guidetolerance="10"
     inkscape:pageopacity="0"
     inkscape:pageshadow="2"
     inkscape:window-width="1920"
     inkscape:window-height="1025"
     id="namedview78"
     showgrid="false"
     inkscape:zoom="1.31875"
     inkscape:cx="243.48815"
     inkscape:cy="189.87678"
     inkscape:window-x="0"
     inkscape:window-y="27"
     inkscape:window-maximized="1"
     inkscape:current-layer="svg76" />
  <g
     transform="translate(-16,-32)"
     id="g70">
    <path
       inkscape:connector-curvature="0"
       d="M 415.12012,328 H 353.05005 L 252.3501,354.85 a 12.17545,12.17545 0 0 0 -9.03,11.75 12.73253,12.73253 0 0 0 0.24,2.43 12.15744,12.15744 0 0 0 15.24,9.27 h 0.02 c 0.03,-0.01 0.05,-0.01 0.0798,-0.02 l 90.90015,-25.97 A 7.9984704,7.9984704 0 0 1 354.2,367.68994 l -90.98,26 a 0.075,0.075 0 0 0 -0.05,0.01 l -20.97,5.99 a 8.06275,8.06275 0 0 1 -2.80981,0.29 l -88.8,-6.83008 a 7.62225,7.62225 0 0 0 -0.79,-0.0299 A 10.05146,10.05146 0 0 0 147.21,412.88 l 2.71,0.73 a 31.967,31.967 0 0 1 45.5,9.91 31.958,31.958 0 0 1 48,8 31.958,31.958 0 0 1 48,8 31.96722,31.96722 0 0 1 52.27,20.12 l 92.96,-42.9 a 7.96852,7.96852 0 0 1 4.67017,-0.63 L 496,425.22 V 345.97 Z M 312,448 a 16,16 0 1 0 16,16 16.02116,16.02116 0 0 0 -16,-16 z m -48,-8 a 16,16 0 1 0 16,16 16.02116,16.02116 0 0 0 -16,-16 z m -48,-8 a 16,16 0 1 0 16,16 16.02116,16.02116 0 0 0 -16,-16 z m -48,-8 a 16,16 0 1 0 16,16 16.02116,16.02116 0 0 0 -16,-16 z m 59.87012,-51.87 a 27.52449,27.52449 0 0 1 -0.0103,-10.9 l -4.71972,2 A 224.773,224.773 0 0 0 190.79,380.19 l 42.11987,3.24 a 27.98656,27.98656 0 0 1 -5.03979,-11.3 z m 173.55981,-92.26 a 8.03238,8.03238 0 0 1 -5.01,-0.71009 L 380.07007,270.98 a 49.56767,49.56767 0 0 0 -28.44019,-4.87 l -36.80981,4.6 a 49.63944,49.63944 0 0 0 -16.1001,4.87 l -41.37988,20.69 a 102.77548,102.77548 0 0 1 -31.44019,9.83 l -16,2.28 a 15.66546,15.66546 0 0 0 -0.85986,30.87 110.437,110.437 0 0 0 36.08984,1.18994 A 26.90739,26.90739 0 0 1 248.23,339.39 L 349.94,312.27 A 7.92186,7.92186 0 0 1 352,312 h 64 a 7.86786,7.86786 0 0 1 1.74,0.18994 L 496,329.58 V 262.75 Z M 216,264 a 24.84353,24.84353 0 0 1 7.31006,-17.66 8.96888,8.96888 0 0 0 0,-12.68006 A 24.97837,24.97837 0 0 1 221.80005,200 h -10.49 l -9.65015,9.65991 a 8.96888,8.96888 0 0 0 0,12.68006 25.01692,25.01692 0 0 1 0,35.31994 8.96888,8.96888 0 0 0 0,12.68006 24.9528,24.9528 0 0 1 6.90015,22.06994 l 15.06982,-2.1499 c 0.7002,-0.1001 1.40015,-0.23 2.1001,-0.3501 a 9.01583,9.01583 0 0 0 -2.41992,-8.25 A 24.84325,24.84325 0 0 1 216,264 Z M 235.87988,139.75 A 53.77353,53.77353 0 0 0 202.39014,128 H 136 v -16 h 24 V 96 H 93.77 L 48.42993,232 h 80.91016 L 154.46,171.68994 A 32.00154,32.00154 0 0 1 216,184 h 40 v -2.39 A 53.34043,53.34043 0 0 0 235.87988,139.75 Z M 120,64 v 16 h 16 V 64 Z M 88,32 V 48 H 264.33008 V 32 Z m 181.37012,190.34 a 8.95711,8.95711 0 0 0 0,-12.68006 L 259.72,200 h -15.44 l -9.65015,9.65991 a 8.95711,8.95711 0 0 0 0,12.68006 25.01737,25.01737 0 0 1 0,35.31994 8.95711,8.95711 0 0 0 0,12.68006 24.98386,24.98386 0 0 1 7.15015,15.27003 86.78048,86.78048 0 0 0 8.40991,-3.65 L 266.52,273.79 a 25.35421,25.35421 0 0 1 2.8501,-3.45007 8.95711,8.95711 0 0 0 0,-12.68006 25.01737,25.01737 0 0 1 2e-5,-35.31987 z"
       id="path66" />
    <rect
       x="16"
       y="248"
       width="152"
       height="16"
       id="rect68" />
  </g>
</svg>
