<?xml version="1.0" encoding="UTF-8" standalone="no"?>
<svg
   xmlns:dc="http://purl.org/dc/elements/1.1/"
   xmlns:cc="http://creativecommons.org/ns#"
   xmlns:rdf="http://www.w3.org/1999/02/22-rdf-syntax-ns#"
   xmlns:svg="http://www.w3.org/2000/svg"
   xmlns="http://www.w3.org/2000/svg"
   xmlns:sodipodi="http://sodipodi.sourceforge.net/DTD/sodipodi-0.dtd"
   xmlns:inkscape="http://www.inkscape.org/namespaces/inkscape"
   version="1.1"
   x="0px"
   y="0px"
   viewBox="0 0 59.999908 59.999748"
   xml:space="preserve"
   id="svg679"
   sodipodi:docname="noun_isolation_3181705.svg"
   width="59.999908"
   height="59.999748"
   inkscape:version="0.92.3 (2405546, 2018-03-11)"><metadata
     id="metadata685"><rdf:RDF><cc:Work
         rdf:about=""><dc:format>image/svg+xml</dc:format><dc:type
           rdf:resource="http://purl.org/dc/dcmitype/StillImage" /></cc:Work></rdf:RDF></metadata><defs
     id="defs683" /><sodipodi:namedview
     pagecolor="#ffffff"
     bordercolor="#666666"
     borderopacity="1"
     objecttolerance="10"
     gridtolerance="10"
     guidetolerance="10"
     inkscape:pageopacity="0"
     inkscape:pageshadow="2"
     inkscape:window-width="1920"
     inkscape:window-height="1025"
     id="namedview681"
     showgrid="false"
     inkscape:zoom="10.55"
     inkscape:cx="30.000024"
     inkscape:cy="33.374408"
     inkscape:window-x="0"
     inkscape:window-y="27"
     inkscape:window-maximized="1"
     inkscape:current-layer="svg679" /><path
     d="m 53.000024,16.41975 v -12.42 c 0,-0.552 -0.447,-1 -1,-1 h -8 c -0.553,0 -1,0.448 -1,1 v 5.179 l -12.413,-8.989 c -0.352,-0.253 -0.822,-0.253 -1.174,0 l -29.00000022,21 c -0.351,0.254 -0.498,0.706 -0.364,1.118 0.134,0.413 0.517,0.692 0.95100002,0.692 h 4 v 36 c 0,0.552 0.447,1 1,1 h 20.0000002 4 4 20 c 0.553,0 1,-0.448 1,-1 v -36 h 4 c 0.434,0 0.817,-0.279 0.951,-0.692 0.134,-0.412 -0.014,-0.864 -0.364,-1.118 z m -8,-11.42 h 6 v 9.972 l -6,-4.345 z m -18,28 c 0,-1.654 1.346,-3 3,-3 1.654,0 3,1.346 3,3 0,1.654 -1.346,3 -3,3 -1.654,0 -3,-1.346 -3,-3 z m 7.382,5 3,6 h -1.802 l -1.998,-3.496 -1.736,0.992 2.154,3.769 v 1.735 h -4 -4 v -1.735 l 2.154,-3.769 -1.736,-0.992 -1.998,3.496 h -1.802 l 3,-6 z m -7.382,11 h 2 v 9 h -2 z m 4,9 v -9 h 2 v 9 z m 4,0 v -9 c 0.553,0 1,-0.448 1,-1 v -2 h 3 c 0.347,0 0.668,-0.18 0.851,-0.474 0.183,-0.295 0.199,-0.663 0.044,-0.973 l -4,-8 c -0.17,-0.339 -0.516,-0.553 -0.895,-0.553 h -1.026 c 0.635,-0.838 1.026,-1.87 1.026,-3 0,-2.757 -2.243,-5 -5,-5 -2.757,0 -5,2.243 -5,5 0,1.13 0.391,2.162 1.026,3 h -1.026 c -0.379,0 -0.725,0.214 -0.895,0.553 l -4,8 c -0.155,0.31 -0.139,0.678 0.044,0.973 0.183,0.294 0.504,0.474 0.851,0.474 h 3 v 2 c 0,0.552 0.447,1 1,1 v 9 H 7.0000238 v -35 H 53.000024 v 35 z m 19,-37 h -48.0000002 -1.914 l 25.9140002,-18.765 25.914,18.765 z"
     id="path671"
     inkscape:connector-curvature="0" /><path
     d="m 24.000024,9.99975 v 8 c 0,0.552 0.447,1 1,1 h 10 c 0.553,0 1,-0.448 1,-1 v -8 c 0,-0.552 -0.447,-1 -1,-1 h -10 c -0.553,0 -1,0.448 -1,1 z m 2,5 h 3 v 2 h -3 z m 5,2 v -2 h 3 v 2 z m 3,-4 h -3 v -2 h 3 z m -5,-2 v 2 h -3 v -2 z"
     id="path673"
     inkscape:connector-curvature="0" /></svg>