<?xml version="1.0" encoding="UTF-8" standalone="no"?>
<svg
   xmlns:x="adobe:ns:meta/"
   xmlns:dc="http://purl.org/dc/elements/1.1/"
   xmlns:cc="http://creativecommons.org/ns#"
   xmlns:rdf="http://www.w3.org/1999/02/22-rdf-syntax-ns#"
   xmlns:svg="http://www.w3.org/2000/svg"
   xmlns="http://www.w3.org/2000/svg"
   xmlns:sodipodi="http://sodipodi.sourceforge.net/DTD/sodipodi-0.dtd"
   xmlns:inkscape="http://www.inkscape.org/namespaces/inkscape"
   viewBox="0 0 480 480"
   x="0px"
   y="0px"
   version="1.1"
   id="svg1083"
   sodipodi:docname="noun_Cough_3381781.svg"
   width="480"
   height="480"
   inkscape:version="0.92.3 (2405546, 2018-03-11)">
  <defs
     id="defs1087" />
  <sodipodi:namedview
     pagecolor="#ffffff"
     bordercolor="#666666"
     borderopacity="1"
     objecttolerance="10"
     gridtolerance="10"
     guidetolerance="10"
     inkscape:pageopacity="0"
     inkscape:pageshadow="2"
     inkscape:window-width="1920"
     inkscape:window-height="1025"
     id="namedview1085"
     showgrid="false"
     inkscape:zoom="1.31875"
     inkscape:cx="240"
     inkscape:cy="206.33175"
     inkscape:window-x="0"
     inkscape:window-y="27"
     inkscape:window-maximized="1"
     inkscape:current-layer="svg1083" />
  <desc
     id="desc1071">Cough icon for website, application, printing, document, poster design, etc.</desc>
  <metadata
     id="metadata1073">
<?xpacket begin="&#65279;" id="W5M0MpCehiHzreSzNTczkc9d"?>    <x:xmpmeta
       x:xmptk="Adobe XMP Core 5.6-c145 79.162955, 2018/05/10-01:07:16        " />
<?xpacket end="w"?>    <rdf:RDF>
      <cc:Work
         rdf:about="">
        <dc:format>image/svg+xml</dc:format>
        <dc:type
           rdf:resource="http://purl.org/dc/dcmitype/StillImage" />
      </cc:Work>
    </rdf:RDF>
  </metadata>
  <g
     id="g1077"
     transform="translate(-16,-16)">
    <path
       d="M 488,496 H 248 a 40.045,40.045 0 0 1 -40,-40 v -32 a 8,8 0 0 1 8,-8 h 48 a 32,32 0 0 0 0,-64 h -48 a 8,8 0 0 1 -8,-8 v -32 h -56 a 8.078,8.078 0 0 1 -7.563,-10.608 c 0.063,-0.184 49.8,-144.414 49.8,-144.414 l 15.126,5.216 L 163.221,296 H 216 a 8,8 0 0 1 8,8 v 32 h 40 a 48,48 0 0 1 0,96 h -40 v 24 a 24.027,24.027 0 0 0 24,24 h 232 v -99 h 16 v 107 a 8,8 0 0 1 -8,8 z m -187.578,-303.155 -48,24 a 8,8 0 0 0 0,14.31 l 48,24 7.156,-14.31 L 273.889,224 307.578,207.155 Z M 176,84 a 68.077,68.077 0 0 1 68,-68 h 68 a 8,8 0 0 1 7.155,11.578 L 300.944,64 H 408 a 88.1,88.1 0 0 1 88,88 v 213 h -16 v -41.687 l -37.088,-37.088 c -3.1,-3.1 -6.113,-6.338 -9.03,-9.666 A 47.789,47.789 0 0 1 416,280 h -16 v -16 h 16 a 31.705,31.705 0 0 0 16.257,-4.454 c 0.45,-0.267 0.894,-0.541 1.327,-0.827 0.211,-0.139 0.417,-0.286 0.624,-0.431 A 31.982,31.982 0 0 0 416,200 H 398.069 A 8,8 0 0 1 390.32,193.989 201.384,201.384 0 0 1 384.16,152 H 244 A 68.077,68.077 0 0 1 176,84 Z m 16,0 a 52.059,52.059 0 0 0 52,52 h 148 a 8,8 0 0 1 8,8 185.166,185.166 0 0 0 4.381,40 H 416 a 47.985,47.985 0 0 1 31.691,84.03 q 3.192,3.539 6.534,6.882 L 480,300.686 V 152 A 71.97,71.97 0 0 0 411.7,80.094 C 410.474,80.032 289.04,80 289.04,80 H 288 A 8,8 0 0 1 280.845,68.422 L 299.056,32 H 244 a 52.059,52.059 0 0 0 -52,52 z m 224,148 h 8 v -16 h -8 a 24.028,24.028 0 0 0 -24,24 h 16 a 8.009,8.009 0 0 1 8,-8 z M 16.647,379.151 A 7.993,7.993 0 0 1 16,376 v -76 a 28,28 0 0 1 56,0 v 50.111 l 24,48 V 372 a 28,28 0 0 1 56,0 v 39.266 a 65.49,65.49 0 0 1 32,56.511 V 488 a 8,8 0 0 1 -8,8 H 72 a 8,8 0 0 1 -7.353,-4.849 z M 32,374.358 77.275,480 H 168 V 467.777 A 49.617,49.617 0 0 0 140.422,423.155 8,8 0 0 1 136,416 v -44 a 12,12 0 0 0 -24,0 v 60 a 8,8 0 0 1 -15.155,3.578 l -40,-80 A 7.994,7.994 0 0 1 56,352 v -52 a 12,12 0 0 0 -24,0 z M 16,224 a 24.027,24.027 0 0 1 24,-24 c 5.868,0 11.46,0.692 16.468,4.03 l 19.97,13.314 a 8.07,8.07 0 0 1 0,13.312 l -19.97,13.313 C 51.382,247.36 45.749,248 40,248 A 24.027,24.027 0 0 1 16,224 Z m 16,0 a 8.009,8.009 0 0 0 8,8 h 3.156 a 7.979,7.979 0 0 0 4.438,-1.344 L 57.578,224 47.593,217.343 A 7.98,7.98 0 0 0 43.156,216 H 40 a 8.009,8.009 0 0 0 -8,8 z m 15.084,-61.731 c -9.262,-9.431 -10.925,-25.741 -0.741,-35.926 13.762,-13.762 37.885,-6.416 42.558,12.277 0.006,0.022 6.86,27.439 6.86,27.44 a 8.107,8.107 0 0 1 -9.7,9.7 L 58.62,168.9 a 24.383,24.383 0 0 1 -11.536,-6.631 z m 10.573,-11.926 0.676,0.677 a 8.974,8.974 0 0 0 4.167,2.359 l 14.5,3.626 -3.626,-14.5 a 8.974,8.974 0 0 0 -2.359,-4.167 l -0.677,-0.676 a 8.9703566,8.9703566 0 0 0 -12.686,12.686 z m 50.374,-45.875 C 104.642,99.384 104,93.941 104,88 a 24,24 0 0 1 48,0 c 0,5.922 -0.654,11.4 -4.03,16.468 l -13.314,19.97 a 8.089,8.089 0 0 1 -13.312,0 z m 13.313,-8.874 6.656,9.984 6.657,-9.985 C 136.211,93.261 136,90.675 136,88 a 8,8 0 0 0 -16,0 c 0,2.646 -0.109,5.414 1.344,7.594 z"
       id="path1075"
       inkscape:connector-curvature="0" />
  </g>
</svg>
