<?xml version="1.0" encoding="UTF-8" standalone="no"?>
<svg
   xmlns:x="adobe:ns:meta/"
   xmlns:dc="http://purl.org/dc/elements/1.1/"
   xmlns:cc="http://creativecommons.org/ns#"
   xmlns:rdf="http://www.w3.org/1999/02/22-rdf-syntax-ns#"
   xmlns:svg="http://www.w3.org/2000/svg"
   xmlns="http://www.w3.org/2000/svg"
   xmlns:sodipodi="http://sodipodi.sourceforge.net/DTD/sodipodi-0.dtd"
   xmlns:inkscape="http://www.inkscape.org/namespaces/inkscape"
   viewBox="0 0 480.00098 480.00934"
   x="0px"
   y="0px"
   version="1.1"
   id="svg763"
   sodipodi:docname="noun_no hug_3381814.svg"
   width="480.00098"
   height="480.00934"
   inkscape:version="0.92.3 (2405546, 2018-03-11)">
  <defs
     id="defs767" />
  <sodipodi:namedview
     pagecolor="#ffffff"
     bordercolor="#666666"
     borderopacity="1"
     objecttolerance="10"
     gridtolerance="10"
     guidetolerance="10"
     inkscape:pageopacity="0"
     inkscape:pageshadow="2"
     inkscape:window-width="1920"
     inkscape:window-height="1025"
     id="namedview765"
     showgrid="false"
     inkscape:zoom="1.31875"
     inkscape:cx="240.00108"
     inkscape:cy="176.00934"
     inkscape:window-x="0"
     inkscape:window-y="27"
     inkscape:window-maximized="1"
     inkscape:current-layer="svg763" />
  <desc
     id="desc751">No hug icon for website, application, printing, document, poster design, etc.</desc>
  <metadata
     id="metadata753">
<?xpacket begin="&#65279;" id="W5M0MpCehiHzreSzNTczkc9d"?>    <x:xmpmeta
       x:xmptk="Adobe XMP Core 5.6-c145 79.162955, 2018/05/10-01:07:16        " />
<?xpacket end="w"?>    <rdf:RDF>
      <cc:Work
         rdf:about="">
        <dc:format>image/svg+xml</dc:format>
        <dc:type
           rdf:resource="http://purl.org/dc/dcmitype/StillImage" />
      </cc:Work>
    </rdf:RDF>
  </metadata>
  <g
     id="g757"
     transform="translate(-15.998924,-16)">
    <path
       d="m 160,144 h -16 v -16 h 16 z M 425.706,86.294 a 240.01,240.01 0 0 1 -16.42,354.385 L 399.061,428.372 Q 406.2,422.439 412.77,416 H 328 v 52.2 a 222.926,222.926 0 0 0 57.989,-29.756 l 9.3,13.024 A 240.015,240.015 0 0 1 16,256 237.473,237.473 0 0 1 41.92,147.4 l 14.264,7.25 A 221.612,221.612 0 0 0 32,256 225.139,225.139 0 0 0 40,315.687 V 272 A 40.045,40.045 0 0 1 80,232 V 117.445 a 223.889,223.889 0 0 0 -15.751,22.7 L 50.562,131.857 C 61.506,113.783 84,84.667 103.38,70.815 A 241.722,241.722 0 0 1 256,16 c 62.183,0 125.706,26.294 169.706,70.294 z m -10.013,21.327 -11.633,11.633 3.7,14.806 a 7.992,7.992 0 0 1 -0.172,4.47 l -8,24 A 8,8 0 0 1 392,168 H 355.314 L 336,187.314 V 196 a 4,4 0 0 0 4,4 h 55.471 L 416,165.784 c 0,0 -0.11,-56.73 -0.307,-58.163 z m -8.833,104.5 A 8,8 0 0 1 400,216 h -40 v 16 h 56 V 196.883 Z M 386.34,114.351 385.754,112 h -46.407 a 40.052,40.052 0 0 0 -3.347,16 7.994,7.994 0 0 1 -0.845,3.578 L 324.944,152 h 23.742 l 8,-8 H 352 v -16 h 16 v 4.686 z M 371.314,152 h 14.92 l 5.44,-16.319 -0.808,-3.233 z m -50.287,50.287 -76.9,76.9 7.553,8.813 h 1.006 l 44.287,-44.287 A 39.729,39.729 0 0 1 325.25,232 H 344 v -16 h -4 A 20.026,20.026 0 0 1 321.027,202.287 Z M 384,80 h -48 a 8,8 0 0 0 0,16 h 56 a 8,8 0 0 1 7.487,5.2 l 9.138,-9.137 q -4.431,-4.132 -9.043,-8 A 31.8,31.8 0 0 0 384,80 Z M 140.608,64 H 192 a 8,8 0 0 1 8,8 v 8 a 31.966,31.966 0 0 1 -12.71,25.512 55.87,55.87 0 0 1 4.654,19.982 l 14.712,22.068 a 8.14,8.14 0 0 1 -3.078,11.593 L 192,164.944 V 184 a 24.027,24.027 0 0 1 -24,24 v 24 h 17.28 a 39.967,39.967 0 0 1 30.373,13.962 L 233.684,267 320,180.686 V 168 h -8 a 8.1,8.1 0 0 1 -7.155,-11.578 l 15.189,-30.379 A 56.108,56.108 0 0 1 323.519,108.491 23.995,23.995 0 0 1 336,64 h 35.537 A 224.435,224.435 0 0 0 144.361,61.758 c -1.261,0.728 -2.505,1.49 -3.753,2.242 z M 96,123.172 a 42.8,42.8 0 0 0 16.411,-21.7 A 8,8 0 0 1 120,96 h 48 a 16.019,16.019 0 0 0 16,-16 h -56 a 31.01,31.01 0 0 0 -15.338,4.1 C 102.788,89.705 96,100.394 96,112 Z M 96,232 h 56 v -32 a 8,8 0 0 1 8,-8 h 8 a 8.009,8.009 0 0 0 8,-8 v -0.575 C 152.3,179.8 152,160.218 152,160 h 16 a 1.978,1.978 0 0 0 0,-0.229 c 0.069,1.065 0.806,5.428 8,7.332 V 160 a 8,8 0 0 1 4.422,-7.155 l 7.9,-3.948 -10.973,-16.459 A 8,8 0 0 1 176,128 39.947,39.947 0 0 0 172.525,111.674 C 171.046,111.885 125.451,112 125.451,112 A 59,59 0 0 1 96,141.445 Z M 92.062,408.625 140.686,360 H 96 A 24.027,24.027 0 0 1 72,336 v -24 a 24.027,24.027 0 0 1 24,-24 h 8 v -0.634 a 19.919,19.919 0 0 1 36.493,-11.048 L 148.281,288 h 64.405 l 9.651,-9.651 -18.832,-21.974 A 23.984,23.984 0 0 0 185.28,248 H 80 a 24.028,24.028 0 0 0 -24,24 v 85.113 a 223.944,223.944 0 0 0 36.062,51.512 z M 152,304 v 40 h 4.686 l 40,-40 z M 127.18,285.192 A 3.919,3.919 0 0 0 120,287.366 V 296 a 8,8 0 0 1 -8,8 H 96 a 8.009,8.009 0 0 0 -8,8 v 24 a 8.009,8.009 0 0 0 8,8 h 40 V 298.422 Z M 184,360 h -20.686 l -59.938,59.938 A 222.662,222.662 0 0 0 184,468.22 Z m 128,56 h -42.75 a 39.882,39.882 0 0 1 -26.193,-9.8 C 242.392,405.649 200,363.311 200,363.311 V 472.97 a 226.481,226.481 0 0 0 112,-0.005 z m 48,-56 h -64 a 8,8 0 0 1 -6.077,-2.8 l -1.758,-2.054 -2.508,2.508 A 8,8 0 0 1 280,360 h -60.686 c 0,0 34.119,34.022 34.188,34.083 A 23.89,23.89 0 0 0 269.25,400 H 360 Z M 299.682,344 H 312 V 331.313 L 299.512,343.8 Z M 424,368 a 8.009,8.009 0 0 0 -8,-8 h -16 a 8,8 0 0 1 -8,-8 v -8.634 a 3.92,3.92 0 0 0 -7.18,-2.175 L 376,354.422 V 400 h 40 a 8.009,8.009 0 0 0 8,-8 z m 8,-136 a 40.045,40.045 0 0 1 40,40 v 43.431 A 224.277,224.277 0 0 0 432,117.4 Z m 0,16 H 325.25 a 24.159,24.159 0 0 0 -16.963,7.027 l -46.63,46.63 A 8,8 0 0 1 256,304 h -36.686 l -40,40 h 97.372 l 37.657,-37.657 A 8,8 0 0 1 328,312 v 32 h 35.719 l 7.788,-11.683 A 19.92,19.92 0 0 1 408,343.366 V 344 h 8 a 24.027,24.027 0 0 1 24,24 v 15.794 a 223.117,223.117 0 0 0 16,-26.807 V 272 a 24.027,24.027 0 0 0 -24,-24 z"
       id="path755"
       inkscape:connector-curvature="0" />
  </g>
</svg>
