<svg width="100.00000000000001" height="100.00000000000001" xmlns="http://www.w3.org/2000/svg">

 <g>
  <title>background</title>
  <rect fill="none" id="canvas_background" height="102" width="102" y="-1" x="-1"/>
 </g>
 <g>
  <title>Layer 1</title>
  <path fill="#000" id="svg_1" d="m42.690004,79.254001c0.018,0 0.035,0 0.054,0c1.38,-0.029 2.476,-1.171 2.446,-2.552l-1,-47.783c-0.028,-1.363 -1.142,-2.448 -2.498,-2.448c-0.018,0 -0.035,0 -0.054,0c-1.38,0.029 -2.476,1.171 -2.446,2.552l1,47.783c0.029,1.363 1.142,2.448 2.498,2.448zm14.625,0c1.356,0 2.47,-1.085 2.498,-2.448l1,-47.783c0.029,-1.38 -1.066,-2.523 -2.446,-2.552c-0.019,0 -0.036,0 -0.054,0c-1.356,0 -2.47,1.085 -2.498,2.448l-1,47.783c-0.029,1.38 1.066,2.523 2.446,2.552c0.019,0 0.037,0 0.054,0zm19.67,-52.781c-1.368,-0.044 -2.537,1.03 -2.587,2.41l-2.002,56.228c0,1.695 -1.376,3.073 -3.067,3.073l-38.649,0c-1.694,0 -3.073,-1.378 -3.075,-3.162l-2,-56.14c-0.049,-1.38 -1.215,-2.45 -2.587,-2.41c-1.38,0.049 -2.459,1.208 -2.409,2.587l1.998,56.051c0,4.452 3.622,8.073 8.073,8.073l38.649,0c4.448,0 8.067,-3.622 8.065,-7.984l2,-56.14c0.05,-1.378 -1.029,-2.537 -2.409,-2.586zm5.035,-10l-15.236,0l0,-7.156c0,-1.381 -1.119,-2.5 -2.5,-2.5l-28.56,0c-1.381,0 -2.5,1.119 -2.5,2.5l0,7.156l-15.244,0c-1.381,0 -2.5,1.119 -2.5,2.5s1.119,2.5 2.5,2.5l64.04,0c1.381,0 2.5,-1.119 2.5,-2.5s-1.12,-2.5 -2.5,-2.5zm-20.236,0l-23.56,0l0,-4.656l23.56,0l0,4.656z"/>
 </g>
</svg>