<svg width="100" height="100" xmlns="http://www.w3.org/2000/svg">

 <g>
  <title>background</title>
  <rect fill="none" id="canvas_background" height="102" width="102" y="-1" x="-1"/>
 </g>
 <g>
  <title>Layer 1</title>
  <g id="svg_1">
   <path fill="#ffffff" id="svg_2" d="m90.044889,25.000879l-7.3,7.3l-15,-15l7.5,-7.5c1.7,-1.7 4.9,-1.7 6.8,0l8.4,8.4c1.5,1.9 1.5,4.9 -0.4,6.8z"/>
   <path fill="#ffffff" id="svg_3" d="m13.144889,72.100879c6.3,3.2 11.6,8.4 14.8,14.6l0,0l-16.9,4.7c-1.5,0.4 -2.9,-0.9 -2.5,-2.4l4.6,-16.9zm18.7,11.1c-3.4,-6.3 -8.7,-11.8 -15,-15l47.3,-47.2l15,15l-47.3,47.2z"/>
  </g>
 </g>
</svg>